<svg width="15.937500" height="13.000000" viewBox="0 0 15.9375 13" fill="none" xmlns="http://www.w3.org/2000/svg" xmlns:xlink="http://www.w3.org/1999/xlink">
	<desc>
			Created with Pixso.
	</desc>
	<defs/>
	<path id="Vector" d="M5.66 13L4.78 13C4.69 13 4.6 12.97 4.52 12.93C4.44 12.89 4.38 12.84 4.33 12.77C4.28 12.7 4.25 12.62 4.25 12.53C4.24 12.45 4.26 12.36 4.29 12.29L6.43 7.84L3.22 7.78L2.05 9.11C1.82 9.38 1.64 9.5 1.19 9.5L0.59 9.5C0.5 9.5 0.41 9.48 0.32 9.44C0.24 9.4 0.16 9.35 0.11 9.27C0.03 9.17 -0.05 9 0.03 8.76L0.68 6.54C0.69 6.53 0.7 6.51 0.7 6.49C0.7 6.49 0.7 6.49 0.7 6.49C0.69 6.47 0.69 6.46 0.68 6.44L0.03 4.21C-0.05 3.97 0.03 3.8 0.11 3.7C0.16 3.64 0.23 3.59 0.31 3.55C0.39 3.51 0.47 3.49 0.56 3.5L1.19 3.5C1.53 3.5 1.86 3.64 2.05 3.87L3.2 5.18L6.43 5.14L4.29 0.7C4.26 0.63 4.24 0.54 4.25 0.46C4.25 0.38 4.28 0.29 4.33 0.22C4.38 0.15 4.44 0.1 4.52 0.06C4.6 0.02 4.69 0 4.78 0L5.67 0C5.79 0 5.92 0.03 6.03 0.08C6.14 0.13 6.24 0.21 6.31 0.3L10.46 5.05L12.38 5C12.52 5 12.91 4.99 13 4.99C14.84 5 15.93 5.56 15.93 6.5C15.93 6.79 15.81 7.34 14.97 7.69C14.47 7.89 13.81 8 13 8C12.91 8 12.52 8 12.38 7.99L10.46 7.94L6.3 12.69C6.23 12.78 6.13 12.86 6.02 12.91C5.91 12.96 5.78 12.99 5.66 13Z" fill="#FFFFFF" fill-opacity="1.000000" fill-rule="nonzero"/>
</svg>
