<svg width="9.001709" height="7.059570" viewBox="0 0 9.00171 7.05957" fill="none" xmlns="http://www.w3.org/2000/svg" xmlns:xlink="http://www.w3.org/1999/xlink">
	<desc>
			Created with Pixso.
	</desc>
	<defs/>
	<path id="evaArrowUpFill2" d="M7.65 7.05L1.34 7.05C1.09 7.05 0.84 6.98 0.63 6.84C0.42 6.7 0.25 6.5 0.15 6.26C0.02 5.98 -0.03 5.67 0.01 5.36C0.04 5.05 0.16 4.76 0.34 4.51L3.5 0.48C3.62 0.32 3.78 0.2 3.95 0.12C4.12 0.04 4.31 0 4.5 0C4.69 0 4.87 0.04 5.04 0.12C5.22 0.2 5.37 0.32 5.49 0.48L8.65 4.51C8.84 4.76 8.95 5.05 8.99 5.36C9.02 5.67 8.97 5.98 8.85 6.26C8.74 6.5 8.57 6.7 8.36 6.84C8.15 6.98 7.9 7.05 7.65 7.05Z" fill="#2B64C8" fill-opacity="1.000000" fill-rule="nonzero"/>
</svg>
