<svg width="24.000000" height="24.000000" viewBox="0 0 24 24" fill="none" xmlns="http://www.w3.org/2000/svg" xmlns:xlink="http://www.w3.org/1999/xlink">
	<desc>
			Created with Pixso.
	</desc>
	<defs>
		<clipPath id="clip87_22256">
			<rect id="mingcute:close-fill" rx="-0.500000" width="23.000000" height="23.000000" transform="translate(0.500000 0.500000)" fill="white" fill-opacity="0"/>
		</clipPath>
	</defs>
	<rect id="mingcute:close-fill" rx="-0.500000" width="23.000000" height="23.000000" transform="translate(0.500000 0.500000)" fill="#FFFFFF" fill-opacity="0"/>
	<g clip-path="url(#clip87_22256)">
		<path id="Vector" d="M12 14.12L17.3 19.42C17.58 19.7 17.96 19.86 18.36 19.86C18.76 19.86 19.14 19.7 19.42 19.42C19.7 19.14 19.86 18.76 19.86 18.36C19.86 17.96 19.7 17.58 19.42 17.3L14.12 12L19.42 6.69C19.56 6.55 19.67 6.39 19.74 6.21C19.82 6.02 19.86 5.83 19.86 5.63C19.86 5.43 19.82 5.24 19.74 5.06C19.67 4.88 19.56 4.71 19.42 4.57C19.28 4.43 19.11 4.32 18.93 4.25C18.75 4.17 18.55 4.13 18.36 4.13C18.16 4.13 17.97 4.17 17.78 4.25C17.6 4.32 17.44 4.43 17.3 4.57L12 9.87L6.69 4.57C6.55 4.43 6.39 4.31 6.21 4.23C6.02 4.16 5.83 4.11 5.63 4.11C5.43 4.11 5.23 4.15 5.05 4.22C4.86 4.3 4.69 4.41 4.55 4.55C4.41 4.69 4.3 4.86 4.22 5.04C4.15 5.23 4.11 5.43 4.11 5.63C4.11 5.82 4.16 6.02 4.23 6.2C4.31 6.39 4.43 6.55 4.57 6.69L9.87 12L4.57 17.3C4.43 17.44 4.31 17.6 4.24 17.79C4.16 17.97 4.12 18.17 4.11 18.37C4.11 18.56 4.15 18.76 4.23 18.95C4.3 19.13 4.41 19.3 4.55 19.44C4.69 19.58 4.86 19.69 5.05 19.77C5.23 19.84 5.43 19.88 5.63 19.88C5.83 19.88 6.02 19.83 6.21 19.76C6.39 19.68 6.55 19.56 6.69 19.42L12 14.12Z" fill="#AF7B7B" fill-opacity="1.000000" fill-rule="evenodd"/>
	</g>
</svg>
