<svg width="16.000000" height="16.000000" viewBox="0 0 16 16" fill="none" xmlns="http://www.w3.org/2000/svg" xmlns:xlink="http://www.w3.org/1999/xlink">
	<desc>
			Created with Pixso.
	</desc>
	<defs/>
	<path id="Vector" d="M8 12L3 7L4.4 5.55L7 8.15L7 0L9 0L9 8.15L11.59 5.55L13 7L8 12ZM2 16C1.44 16 0.97 15.8 0.58 15.41C0.19 15.02 0 14.55 0 14L0 11L2 11L2 14L14 14L14 11L16 11L16 14C16 14.55 15.8 15.02 15.41 15.41C15.02 15.8 14.55 16 14 16L2 16Z" fill="#2B64C8" fill-opacity="1.000000" fill-rule="nonzero"/>
</svg>
