<svg width="24.000000" height="24.000000" viewBox="0 0 24 24" fill="none" xmlns="http://www.w3.org/2000/svg" xmlns:xlink="http://www.w3.org/1999/xlink">
	<desc>
			Created with Pixso.
	</desc>
	<defs>
		<clipPath id="clip87_21810">
			<rect id="mingcute:exit-line" rx="-0.500000" width="23.000000" height="23.000000" transform="translate(0.500000 0.500000)" fill="white" fill-opacity="0"/>
		</clipPath>
	</defs>
	<rect id="mingcute:exit-line" rx="-0.500000" width="23.000000" height="23.000000" transform="translate(0.500000 0.500000)" fill="#FFFFFF" fill-opacity="0"/>
	<g clip-path="url(#clip87_21810)">
		<path id="Vector" d="M12 3C12.25 3 12.5 3.09 12.68 3.27C12.87 3.44 12.98 3.68 12.99 3.94C13.01 4.19 12.92 4.44 12.76 4.64C12.6 4.83 12.37 4.96 12.11 4.99L12 5L7 5C6.75 5 6.51 5.08 6.33 5.25C6.15 5.41 6.03 5.63 6 5.88L6 6L6 18C6 18.24 6.08 18.48 6.25 18.66C6.41 18.84 6.63 18.96 6.88 18.99L7 19L11.5 19C11.75 19 12 19.09 12.18 19.27C12.37 19.44 12.48 19.68 12.49 19.94C12.51 20.19 12.42 20.44 12.26 20.64C12.1 20.83 11.87 20.96 11.61 20.99L11.5 21L7 21C6.23 21 5.49 20.7 4.94 20.18C4.38 19.65 4.04 18.93 4 18.17L4 18L4 6C4 5.23 4.29 4.49 4.81 3.94C5.34 3.38 6.06 3.04 6.82 3L7 3L12 3ZM17.7 8.46L20.53 11.29C20.72 11.48 20.82 11.73 20.82 12C20.82 12.26 20.72 12.51 20.53 12.7L17.7 15.53C17.51 15.72 17.26 15.82 16.99 15.82C16.73 15.82 16.48 15.72 16.29 15.53C16.1 15.34 15.99 15.09 16 14.82C16 14.56 16.1 14.3 16.29 14.12L17.41 13L12 13C11.73 13 11.48 12.89 11.29 12.7C11.1 12.51 11 12.26 11 12C11 11.73 11.1 11.48 11.29 11.29C11.48 11.1 11.73 11 12 11L17.41 11L16.29 9.87C16.1 9.69 16 9.43 16 9.17C15.99 8.9 16.1 8.65 16.29 8.46C16.48 8.27 16.73 8.17 16.99 8.17C17.26 8.17 17.51 8.27 17.7 8.46Z" fill="#232323" fill-opacity="1.000000" fill-rule="nonzero"/>
	</g>
</svg>
