<svg width="20.000000" height="20.000000" viewBox="0 0 20 20" fill="none" xmlns="http://www.w3.org/2000/svg" xmlns:xlink="http://www.w3.org/1999/xlink">
	<desc>
			Created with Pixso.
	</desc>
	<defs>
		<clipPath id="clip87_21960">
			<rect id="fluent-mdl2:air-tickets" rx="-0.500000" width="19.000000" height="19.000000" transform="translate(0.500000 0.500000)" fill="white" fill-opacity="0"/>
		</clipPath>
	</defs>
	<rect id="fluent-mdl2:air-tickets" rx="-0.500000" width="19.000000" height="19.000000" transform="translate(0.500000 0.500000)" fill="#FFFFFF" fill-opacity="0"/>
	<g clip-path="url(#clip87_21960)">
		<path id="Vector" d="M20 6.25L20 17.5L0 17.5L0 6.25L4.29 6.25C4.3 6.25 4.41 6.21 4.61 6.15C4.82 6.08 5.11 5.99 5.46 5.86C5.82 5.74 6.23 5.6 6.69 5.45C7.16 5.3 7.66 5.14 8.2 4.96C8.74 4.77 9.29 4.59 9.85 4.4C10.41 4.21 10.97 4.02 11.53 3.83C12.09 3.64 12.61 3.47 13.1 3.31C13.59 3.14 14.04 2.99 14.46 2.86C14.87 2.72 15.21 2.61 15.46 2.51C15.72 2.42 15.9 2.36 16.01 2.33L17.32 6.25L20 6.25ZM8.22 6.25L16 6.25L15.23 3.91L8.22 6.25ZM18.75 7.5L1.25 7.5L1.25 16.25L18.75 16.25L18.75 7.5ZM16.25 8.75L16.25 10L15 10L15 8.75L16.25 8.75ZM16.25 11.25L16.25 12.5L15 12.5L15 11.25L16.25 11.25ZM16.25 15L15 15L15 13.75L16.25 13.75L16.25 15ZM17.5 11.25L16.25 11.25L16.25 10L17.5 10L17.5 11.25ZM17.5 13.75L16.25 13.75L16.25 12.5L17.5 12.5L17.5 13.75ZM4.58 12.5L3.75 10L5 10L5.62 11.25L8.33 11.25L7.5 8.75L8.75 8.75L10 11.25L12.5 11.25C12.66 11.25 12.81 11.31 12.93 11.43C13.06 11.55 13.12 11.7 13.12 11.87C13.12 12.04 13.06 12.19 12.93 12.31C12.81 12.43 12.66 12.5 12.5 12.5L10 12.5L8.75 15L7.5 15L8.33 12.5L4.58 12.5Z" fill="#9EA9B7" fill-opacity="1.000000" fill-rule="nonzero"/>
	</g>
</svg>
