<svg width="18.676758" height="19.199951" viewBox="0 0 18.6768 19.2" fill="none" xmlns="http://www.w3.org/2000/svg" xmlns:xlink="http://www.w3.org/1999/xlink">
	<desc>
			Created with Pixso.
	</desc>
	<defs/>
	<path id="Vector" d="M16.47 10.54C16.51 10.24 16.53 9.92 16.53 9.6C16.53 9.28 16.51 8.95 16.46 8.65L18.49 7.08C18.58 7 18.64 6.9 18.66 6.79C18.68 6.68 18.67 6.56 18.61 6.46L16.69 3.14C16.64 3.04 16.55 2.97 16.44 2.93C16.33 2.89 16.21 2.89 16.1 2.92L13.71 3.88C13.21 3.51 12.68 3.18 12.09 2.94L11.73 0.4C11.72 0.29 11.66 0.19 11.57 0.11C11.48 0.04 11.37 -0.01 11.25 0L7.41 0C7.17 0 6.98 0.16 6.94 0.4L6.58 2.94C5.99 3.18 5.45 3.52 4.96 3.88L2.57 2.92C2.35 2.85 2.1 2.92 1.98 3.14L0.07 6.46C-0.05 6.67 -0.01 6.93 0.19 7.08L2.22 8.65C2.17 8.95 2.13 9.29 2.13 9.6C2.13 9.9 2.15 10.24 2.2 10.54L0.17 12.12C0.09 12.19 0.03 12.29 0 12.4C-0.02 12.51 0 12.63 0.05 12.73L1.97 16.04C2.09 16.27 2.34 16.34 2.56 16.27L4.95 15.31C5.45 15.68 5.98 16.01 6.57 16.25L6.93 18.79C6.98 19.03 7.17 19.2 7.41 19.2L11.25 19.2C11.49 19.2 11.69 19.03 11.72 18.79L12.08 16.25C12.67 16.01 13.21 15.68 13.7 15.31L16.09 16.27C16.31 16.35 16.56 16.27 16.68 16.04L18.6 12.73C18.72 12.51 18.67 12.26 18.48 12.12L16.47 10.54ZM9.33 13.2C7.35 13.2 5.73 11.58 5.73 9.6C5.73 7.62 7.35 6 9.33 6C11.31 6 12.93 7.62 12.93 9.6C12.93 11.58 11.31 13.2 9.33 13.2Z" fill="#9EA9B7" fill-opacity="1.000000" fill-rule="nonzero"/>
</svg>
